# xmcd
#
# Track frame offsets: 
#        150
#        11172
#        21292
#        39440
#        54505
#        66030
#        72260
#        87622
#        101872
#        112457
#        118810
#        129072
#        133595
#        144615
#        150407
#        163835
#        174195
#        185052
#        192810
#        213280
#        226290
#
# Disc length: 3227 seconds
#
# Revision: 0
# Processed by: cddbd v1.5.2PL0 Copyright (c) Steve Scherf et al.
# Submitted via: ExactAudioCopy v0.99pb5
#
DISCID=2f0c9915
DTITLE=Tammy Wynette, George Jones - Country Stars
DYEAR=1990
DGENRE=Country
TTITLE0=George Jones - No Show Jones
TTITLE1=George Jones - The Race Is On
TTITLE2=George Jones - Bartender Blues
TTITLE3=George Jones - I Always Get Lucky With You
TTITLE4=George Jones - She's My Rock
TTITLE5=George Jones - Chicken Reel
TTITLE6=George Jones - He Stopped Loving Her Today
TTITLE7=George Jones - Who's Gonna Fill Their Shoes
TTITLE8=George Jones - The One I Loved Back Than
TTITLE9=Tammy Wynette - Welcome To My World
TTITLE10=Tammy Wynette - Another Chance
TTITLE11=Tammy Wynette - Your Good Girl's Gonna So Bad
TTITLE12=Tammy Wynette - D.I.V.O.R.C.E.
TTITLE13=Tammy Wynette - Singing My Song
TTITLE14=Tammy Wynette - 'Til I Can Make It On My Own
TTITLE15=Tammy Wynette - Womanhoo
TTITLE16=Tammy Wynette - Fairy Tales
TTITLE17=Tammy Wynette - When The Grass Grows Over Me
TTITLE18=Tammy Wynette - Gospel Medley
TTITLE19=Tammy Wynette - Stand By Your Man
TTITLE20=Tammy Wynette - Cryin' In The Rain
EXTD=
EXTT0=
EXTT1=
EXTT2=
EXTT3=
EXTT4=
EXTT5=
EXTT6=
EXTT7=
EXTT8=
EXTT9=
EXTT10=
EXTT11=
EXTT12=
EXTT13=
EXTT14=
EXTT15=
EXTT16=
EXTT17=
EXTT18=
EXTT19=
EXTT20=
PLAYORDER=
